<mxfile host="app.diagrams.net" agent="Mozilla/5.0 (X11; Linux x86_64) AppleWebKit/537.36 (KHTML, like Gecko) Chrome/129.0.0.0 Safari/537.36" version="25.0.3">
  <diagram name="Диаграмма архитектуры" id="mPObYYncqdlxVx78Bwci">
    <mxGraphModel dx="3033" dy="2431" grid="1" gridSize="10" guides="1" tooltips="1" connect="1" arrows="1" fold="1" page="1" pageScale="1" pageWidth="827" pageHeight="1169" math="0" shadow="0">
      <root>
        <mxCell id="0" />
        <mxCell id="1" parent="0" />
        <mxCell id="Xtu8YGEMhjcYJ5-179XU-1" value="" style="group;verticalAlign=middle;horizontal=1;align=center;fontSize=16;spacingTop=50;" vertex="1" connectable="0" parent="1">
          <mxGeometry x="140" y="135" width="70" height="190" as="geometry" />
        </mxCell>
        <mxCell id="Xtu8YGEMhjcYJ5-179XU-2" value="Load balancer" style="rounded=1;whiteSpace=wrap;html=1;shadow=1;flipV=0;flipH=0;verticalAlign=middle;horizontal=1;align=center;fontSize=16;spacingTop=60;" vertex="1" parent="Xtu8YGEMhjcYJ5-179XU-1">
          <mxGeometry width="70" height="190" as="geometry" />
        </mxCell>
        <mxCell id="Xtu8YGEMhjcYJ5-179XU-3" value="" style="outlineConnect=0;dashed=0;verticalLabelPosition=bottom;verticalAlign=middle;align=center;html=1;shape=mxgraph.aws3.classic_load_balancer;fillColor=#F58534;gradientColor=none;flipV=0;flipH=0;horizontal=1;fontSize=16;spacingTop=30;" vertex="1" parent="Xtu8YGEMhjcYJ5-179XU-1">
          <mxGeometry y="26" width="69" height="72" as="geometry" />
        </mxCell>
        <mxCell id="Xtu8YGEMhjcYJ5-179XU-4" value="" style="group" vertex="1" connectable="0" parent="1">
          <mxGeometry x="380" y="30" width="139" height="80" as="geometry" />
        </mxCell>
        <mxCell id="Xtu8YGEMhjcYJ5-179XU-5" value="" style="rounded=1;whiteSpace=wrap;html=1;shadow=1;" vertex="1" parent="Xtu8YGEMhjcYJ5-179XU-4">
          <mxGeometry x="19" y="20" width="120" height="60" as="geometry" />
        </mxCell>
        <mxCell id="Xtu8YGEMhjcYJ5-179XU-6" value="" style="rounded=1;whiteSpace=wrap;html=1;shadow=1;" vertex="1" parent="Xtu8YGEMhjcYJ5-179XU-4">
          <mxGeometry x="10" y="10" width="120" height="60" as="geometry" />
        </mxCell>
        <mxCell id="Xtu8YGEMhjcYJ5-179XU-7" value="&lt;font style=&quot;font-size: 16px;&quot;&gt;UserService&lt;/font&gt;" style="rounded=1;whiteSpace=wrap;html=1;shadow=1;" vertex="1" parent="Xtu8YGEMhjcYJ5-179XU-4">
          <mxGeometry width="120" height="60" as="geometry" />
        </mxCell>
        <mxCell id="Xtu8YGEMhjcYJ5-179XU-8" value="" style="group" vertex="1" connectable="0" parent="1">
          <mxGeometry x="380" y="180" width="139" height="80" as="geometry" />
        </mxCell>
        <mxCell id="Xtu8YGEMhjcYJ5-179XU-9" value="" style="rounded=1;whiteSpace=wrap;html=1;shadow=1;" vertex="1" parent="Xtu8YGEMhjcYJ5-179XU-8">
          <mxGeometry x="19" y="20" width="120" height="60" as="geometry" />
        </mxCell>
        <mxCell id="Xtu8YGEMhjcYJ5-179XU-10" value="" style="rounded=1;whiteSpace=wrap;html=1;shadow=1;" vertex="1" parent="Xtu8YGEMhjcYJ5-179XU-8">
          <mxGeometry x="10" y="10" width="120" height="60" as="geometry" />
        </mxCell>
        <mxCell id="Xtu8YGEMhjcYJ5-179XU-11" value="&lt;font style=&quot;font-size: 16px;&quot;&gt;BookService&lt;/font&gt;" style="rounded=1;whiteSpace=wrap;html=1;shadow=1;" vertex="1" parent="Xtu8YGEMhjcYJ5-179XU-8">
          <mxGeometry width="120" height="60" as="geometry" />
        </mxCell>
        <mxCell id="Xtu8YGEMhjcYJ5-179XU-13" value="Master server" style="shape=image;verticalLabelPosition=bottom;labelBackgroundColor=default;verticalAlign=top;aspect=fixed;imageAspect=0;image=https://cdn.freebiesupply.com/logos/large/2x/amazon-database-logo-png-transparent.png;fontSize=16;" vertex="1" parent="1">
          <mxGeometry x="700" y="-10" width="120" height="120" as="geometry" />
        </mxCell>
        <mxCell id="Xtu8YGEMhjcYJ5-179XU-14" value="Slave server" style="shape=image;verticalLabelPosition=bottom;labelBackgroundColor=default;verticalAlign=top;aspect=fixed;imageAspect=0;image=https://cdn.freebiesupply.com/logos/large/2x/amazon-database-logo-png-transparent.png;fontSize=16;" vertex="1" parent="1">
          <mxGeometry x="650" y="-180" width="80" height="80" as="geometry" />
        </mxCell>
        <mxCell id="Xtu8YGEMhjcYJ5-179XU-15" value="Slave server" style="shape=image;verticalLabelPosition=bottom;labelBackgroundColor=default;verticalAlign=top;aspect=fixed;imageAspect=0;image=https://cdn.freebiesupply.com/logos/large/2x/amazon-database-logo-png-transparent.png;fontSize=16;" vertex="1" parent="1">
          <mxGeometry x="790" y="-180" width="80" height="80" as="geometry" />
        </mxCell>
        <mxCell id="Xtu8YGEMhjcYJ5-179XU-16" value="Cache" style="shape=image;verticalLabelPosition=bottom;labelBackgroundColor=default;verticalAlign=top;aspect=fixed;imageAspect=0;image=https://static.thenounproject.com/png/5172205-200.png;fontSize=16;" vertex="1" parent="1">
          <mxGeometry x="700" y="370" width="120" height="120" as="geometry" />
        </mxCell>
        <mxCell id="Xtu8YGEMhjcYJ5-179XU-17" value="Document DB" style="shape=image;verticalLabelPosition=bottom;labelBackgroundColor=default;verticalAlign=top;aspect=fixed;imageAspect=0;image=https://cdn.freebiesupply.com/logos/large/2x/amazon-database-logo-png-transparent.png;fontSize=16;" vertex="1" parent="1">
          <mxGeometry x="404" y="770" width="80" height="80" as="geometry" />
        </mxCell>
        <mxCell id="Xtu8YGEMhjcYJ5-179XU-18" value="" style="shape=image;html=1;verticalAlign=top;verticalLabelPosition=bottom;labelBackgroundColor=#ffffff;imageAspect=0;aspect=fixed;image=https://cdn0.iconfinder.com/data/icons/phosphor-bold-vol-3-1/256/funnel-duotone-128.png" vertex="1" parent="1">
          <mxGeometry x="370" y="560" width="148" height="148" as="geometry" />
        </mxCell>
        <mxCell id="Xtu8YGEMhjcYJ5-179XU-19" value="Kibana" style="rounded=1;whiteSpace=wrap;html=1;shadow=1;fontSize=16;" vertex="1" parent="1">
          <mxGeometry x="210" y="780" width="120" height="60" as="geometry" />
        </mxCell>
        <mxCell id="Xtu8YGEMhjcYJ5-179XU-20" value="Logstash" style="text;html=1;strokeColor=none;fillColor=none;align=center;verticalAlign=middle;whiteSpace=wrap;rounded=0;fontSize=16;" vertex="1" parent="1">
          <mxGeometry x="550" y="605" width="60" height="30" as="geometry" />
        </mxCell>
        <mxCell id="Xtu8YGEMhjcYJ5-179XU-21" value="" style="shape=image;verticalLabelPosition=bottom;labelBackgroundColor=default;verticalAlign=top;aspect=fixed;imageAspect=0;image=https://cdn.iconscout.com/icon/free/png-256/free-logstash-logo-icon-download-in-svg-png-gif-file-formats--technology-social-media-company-brand-vol-4-pack-logos-icons-2944971.png;" vertex="1" parent="1">
          <mxGeometry x="504" y="600" width="40" height="40" as="geometry" />
        </mxCell>
        <mxCell id="Xtu8YGEMhjcYJ5-179XU-22" value="&lt;font style=&quot;font-size: 16px;&quot;&gt;ElasticSearch&lt;/font&gt;" style="text;html=1;strokeColor=none;fillColor=none;align=center;verticalAlign=middle;whiteSpace=wrap;rounded=0;fontSize=16;" vertex="1" parent="1">
          <mxGeometry x="544" y="655" width="106" height="30" as="geometry" />
        </mxCell>
        <mxCell id="Xtu8YGEMhjcYJ5-179XU-23" value="" style="shape=image;verticalLabelPosition=bottom;labelBackgroundColor=default;verticalAlign=top;aspect=fixed;imageAspect=0;image=https://cdn.iconscout.com/icon/free/png-256/free-elastic-search-logo-icon-download-in-svg-png-gif-file-formats--technology-social-media-vol-2-pack-logos-icons-3029971.png;" vertex="1" parent="1">
          <mxGeometry x="504" y="650" width="40" height="40" as="geometry" />
        </mxCell>
        <mxCell id="Xtu8YGEMhjcYJ5-179XU-31" value="" style="shape=flexArrow;endArrow=classic;startArrow=classic;html=1;rounded=0;exitX=0.337;exitY=-0.023;exitDx=0;exitDy=0;exitPerimeter=0;" edge="1" parent="1" source="Xtu8YGEMhjcYJ5-179XU-13">
          <mxGeometry width="100" height="100" relative="1" as="geometry">
            <mxPoint x="660.5" y="130" as="sourcePoint" />
            <mxPoint x="690.5" y="-70" as="targetPoint" />
          </mxGeometry>
        </mxCell>
        <mxCell id="Xtu8YGEMhjcYJ5-179XU-32" value="" style="shape=flexArrow;endArrow=classic;startArrow=classic;html=1;rounded=0;exitX=0.65;exitY=-0.023;exitDx=0;exitDy=0;exitPerimeter=0;" edge="1" parent="1" source="Xtu8YGEMhjcYJ5-179XU-13">
          <mxGeometry width="100" height="100" relative="1" as="geometry">
            <mxPoint x="820.5" y="-3" as="sourcePoint" />
            <mxPoint x="830.5" y="-70" as="targetPoint" />
          </mxGeometry>
        </mxCell>
        <mxCell id="Xtu8YGEMhjcYJ5-179XU-33" value="" style="shape=flexArrow;endArrow=classic;html=1;rounded=0;exitX=0.5;exitY=1;exitDx=0;exitDy=0;" edge="1" parent="1" source="Xtu8YGEMhjcYJ5-179XU-18">
          <mxGeometry width="50" height="50" relative="1" as="geometry">
            <mxPoint x="580" y="530" as="sourcePoint" />
            <mxPoint x="444" y="760" as="targetPoint" />
          </mxGeometry>
        </mxCell>
        <mxCell id="Xtu8YGEMhjcYJ5-179XU-34" value="" style="shape=flexArrow;endArrow=classic;html=1;rounded=0;" edge="1" parent="1">
          <mxGeometry width="50" height="50" relative="1" as="geometry">
            <mxPoint x="343" y="810" as="sourcePoint" />
            <mxPoint x="403" y="810" as="targetPoint" />
          </mxGeometry>
        </mxCell>
        <mxCell id="Xtu8YGEMhjcYJ5-179XU-35" value="" style="shape=flexArrow;endArrow=classic;html=1;rounded=0;" edge="1" parent="1">
          <mxGeometry width="50" height="50" relative="1" as="geometry">
            <mxPoint x="1000" y="270" as="sourcePoint" />
            <mxPoint x="1000" y="200" as="targetPoint" />
          </mxGeometry>
        </mxCell>
        <mxCell id="Xtu8YGEMhjcYJ5-179XU-36" value="" style="group" vertex="1" connectable="0" parent="1">
          <mxGeometry x="900" y="110" width="200" height="80" as="geometry" />
        </mxCell>
        <mxCell id="Xtu8YGEMhjcYJ5-179XU-37" value="" style="rounded=1;whiteSpace=wrap;html=1;shadow=1;fillColor=default;" vertex="1" parent="Xtu8YGEMhjcYJ5-179XU-36">
          <mxGeometry width="200" height="75" as="geometry" />
        </mxCell>
        <mxCell id="Xtu8YGEMhjcYJ5-179XU-38" value="" style="shape=image;verticalLabelPosition=bottom;labelBackgroundColor=default;verticalAlign=top;aspect=fixed;imageAspect=0;image=https://miro.medium.com/v2/resize:fit:800/1*XE0ObomSZ6cwRHKNZ751Vg.png;" vertex="1" parent="Xtu8YGEMhjcYJ5-179XU-36">
          <mxGeometry x="6" y="4.490000000000009" width="190" height="66.02" as="geometry" />
        </mxCell>
        <mxCell id="Xtu8YGEMhjcYJ5-179XU-39" value="" style="rounded=1;whiteSpace=wrap;html=1;" vertex="1" parent="Xtu8YGEMhjcYJ5-179XU-36">
          <mxGeometry x="2" y="174" width="200" height="80" as="geometry" />
        </mxCell>
        <mxCell id="Xtu8YGEMhjcYJ5-179XU-40" value="" style="shape=image;verticalLabelPosition=bottom;labelBackgroundColor=default;verticalAlign=top;aspect=fixed;imageAspect=0;image=https://miro.medium.com/v2/resize:fit:1400/1*4M4OghuybPhjRsLxhrNsGA.png;" vertex="1" parent="1">
          <mxGeometry x="919" y="301.56" width="168.14" height="43.44" as="geometry" />
        </mxCell>
        <mxCell id="Xtu8YGEMhjcYJ5-179XU-41" value="" style="group" vertex="1" connectable="0" parent="1">
          <mxGeometry x="380" y="390" width="139" height="80" as="geometry" />
        </mxCell>
        <mxCell id="Xtu8YGEMhjcYJ5-179XU-42" value="" style="rounded=1;whiteSpace=wrap;html=1;shadow=1;" vertex="1" parent="Xtu8YGEMhjcYJ5-179XU-41">
          <mxGeometry x="19" y="20" width="120" height="60" as="geometry" />
        </mxCell>
        <mxCell id="Xtu8YGEMhjcYJ5-179XU-43" value="" style="rounded=1;whiteSpace=wrap;html=1;shadow=1;" vertex="1" parent="Xtu8YGEMhjcYJ5-179XU-41">
          <mxGeometry x="10" y="10" width="120" height="60" as="geometry" />
        </mxCell>
        <mxCell id="Xtu8YGEMhjcYJ5-179XU-44" value="&lt;font style=&quot;font-size: 16px;&quot;&gt;Notification&lt;/font&gt;&lt;div&gt;&lt;font style=&quot;font-size: 16px;&quot;&gt;Service&lt;/font&gt;&lt;/div&gt;" style="rounded=1;whiteSpace=wrap;html=1;shadow=1;" vertex="1" parent="Xtu8YGEMhjcYJ5-179XU-41">
          <mxGeometry width="120" height="60" as="geometry" />
        </mxCell>
        <mxCell id="Xtu8YGEMhjcYJ5-179XU-45" value="" style="shape=image;verticalLabelPosition=bottom;labelBackgroundColor=default;verticalAlign=top;aspect=fixed;imageAspect=0;image=https://www.svgrepo.com/show/331745/queue.svg;rotation=45;" vertex="1" parent="1">
          <mxGeometry x="318.75" y="287.5" width="102.5" height="102.5" as="geometry" />
        </mxCell>
        <mxCell id="Xtu8YGEMhjcYJ5-179XU-46" value="" style="shape=flexArrow;endArrow=classic;html=1;rounded=0;" edge="1" parent="1">
          <mxGeometry width="50" height="50" relative="1" as="geometry">
            <mxPoint x="410" y="270" as="sourcePoint" />
            <mxPoint x="370" y="310" as="targetPoint" />
          </mxGeometry>
        </mxCell>
        <mxCell id="Xtu8YGEMhjcYJ5-179XU-47" value="" style="shape=flexArrow;endArrow=classic;html=1;rounded=0;" edge="1" parent="1">
          <mxGeometry width="50" height="50" relative="1" as="geometry">
            <mxPoint x="250" y="213" as="sourcePoint" />
            <mxPoint x="360" y="213" as="targetPoint" />
          </mxGeometry>
        </mxCell>
        <mxCell id="Xtu8YGEMhjcYJ5-179XU-48" value="" style="shape=flexArrow;endArrow=classic;html=1;rounded=0;" edge="1" parent="1">
          <mxGeometry width="50" height="50" relative="1" as="geometry">
            <mxPoint x="250" y="140" as="sourcePoint" />
            <mxPoint x="350" y="100" as="targetPoint" />
          </mxGeometry>
        </mxCell>
        <mxCell id="Xtu8YGEMhjcYJ5-179XU-49" value="" style="shape=flexArrow;endArrow=classic;html=1;rounded=0;" edge="1" parent="1">
          <mxGeometry width="50" height="50" relative="1" as="geometry">
            <mxPoint x="408" y="490" as="sourcePoint" />
            <mxPoint x="407.8947368421052" y="550" as="targetPoint" />
          </mxGeometry>
        </mxCell>
        <mxCell id="Xtu8YGEMhjcYJ5-179XU-50" value="" style="shape=flexArrow;endArrow=classic;html=1;rounded=0;" edge="1" parent="1">
          <mxGeometry width="50" height="50" relative="1" as="geometry">
            <mxPoint x="448" y="490" as="sourcePoint" />
            <mxPoint x="447.8947368421052" y="550" as="targetPoint" />
          </mxGeometry>
        </mxCell>
        <mxCell id="Xtu8YGEMhjcYJ5-179XU-51" value="" style="shape=flexArrow;endArrow=classic;html=1;rounded=0;" edge="1" parent="1">
          <mxGeometry width="50" height="50" relative="1" as="geometry">
            <mxPoint x="488" y="490" as="sourcePoint" />
            <mxPoint x="487.8947368421052" y="550" as="targetPoint" />
          </mxGeometry>
        </mxCell>
        <mxCell id="Xtu8YGEMhjcYJ5-179XU-53" value="" style="shape=flexArrow;endArrow=classic;html=1;rounded=0;" edge="1" parent="1">
          <mxGeometry width="50" height="50" relative="1" as="geometry">
            <mxPoint x="540" y="70" as="sourcePoint" />
            <mxPoint x="680" y="60" as="targetPoint" />
          </mxGeometry>
        </mxCell>
        <mxCell id="Xtu8YGEMhjcYJ5-179XU-54" value="" style="shape=flexArrow;endArrow=classic;html=1;rounded=0;" edge="1" parent="1">
          <mxGeometry width="50" height="50" relative="1" as="geometry">
            <mxPoint x="550" y="220" as="sourcePoint" />
            <mxPoint x="680" y="90" as="targetPoint" />
          </mxGeometry>
        </mxCell>
        <mxCell id="Xtu8YGEMhjcYJ5-179XU-55" value="" style="shape=flexArrow;endArrow=classic;html=1;rounded=0;" edge="1" parent="1">
          <mxGeometry width="50" height="50" relative="1" as="geometry">
            <mxPoint x="540" y="420" as="sourcePoint" />
            <mxPoint x="690" y="130" as="targetPoint" />
          </mxGeometry>
        </mxCell>
        <mxCell id="Xtu8YGEMhjcYJ5-179XU-57" value="" style="shape=flexArrow;endArrow=classic;html=1;rounded=0;" edge="1" parent="1">
          <mxGeometry width="50" height="50" relative="1" as="geometry">
            <mxPoint x="540" y="440" as="sourcePoint" />
            <mxPoint x="690" y="440" as="targetPoint" />
          </mxGeometry>
        </mxCell>
        <mxCell id="Xtu8YGEMhjcYJ5-179XU-58" value="" style="verticalLabelPosition=bottom;aspect=fixed;html=1;shape=mxgraph.salesforce.web;" vertex="1" parent="1">
          <mxGeometry x="-170" y="215" width="139.24" height="110" as="geometry" />
        </mxCell>
        <mxCell id="Xtu8YGEMhjcYJ5-179XU-59" value="" style="shape=flexArrow;endArrow=classic;html=1;rounded=0;" edge="1" parent="1">
          <mxGeometry width="50" height="50" relative="1" as="geometry">
            <mxPoint y="230" as="sourcePoint" />
            <mxPoint x="120" y="230" as="targetPoint" />
          </mxGeometry>
        </mxCell>
        <mxCell id="Xtu8YGEMhjcYJ5-179XU-60" value="" style="shape=flexArrow;endArrow=classic;html=1;rounded=0;" edge="1" parent="1">
          <mxGeometry width="50" height="50" relative="1" as="geometry">
            <mxPoint x="360" y="420" as="sourcePoint" />
            <mxPoint y="310" as="targetPoint" />
          </mxGeometry>
        </mxCell>
      </root>
    </mxGraphModel>
  </diagram>
</mxfile>
